<?xml version="1.0" encoding="iso-8859-1"?>
<!-- Generator: Adobe Illustrator 19.0.0, SVG Export Plug-In . SVG Version: 6.00 Build 0)  -->
<svg version="1.1" id="Layer_1" xmlns="http://www.w3.org/2000/svg" xmlns:xlink="http://www.w3.org/1999/xlink" x="0px" y="0px"
	 viewBox="0 0 460 460" style="enable-background:new 0 0 460 460;" xml:space="preserve">
<g id="XMLID_458_">
	<g id="XMLID_460_">
		<g id="XMLID_42_">
			<path id="XMLID_462_" style="fill:#1D54BD;" d="M229.989,87.5H180c0-24.853-20.135-45-45-45v54.608l94.99,95.522l10-52.565
				L229.989,87.5z"/>
		</g>
		<path id="XMLID_41_" style="fill:#FFE278;" d="M229.989,192.511c0-52.473-42.516-95.011-94.989-95.011v105.131l104.989,10
			C239.989,212.631,229.989,192.508,229.989,192.511z"/>
		<circle id="XMLID_40_" style="fill:#FFFFFF;" cx="177.508" cy="150.065" r="19.685"/>
		<g id="XMLID_37_">
			<path id="XMLID_463_" style="fill:#12398F;" d="M280,87.5h-50.011v105.13L325,97.5v-55C300.147,42.5,280,62.647,280,87.5z"/>
		</g>
		<path id="XMLID_36_" style="fill:#FFC85F;" d="M325,97.5c-52.471,0-95.008,42.535-95.011,95.006v20.125l95.011-10V97.5z"/>
		<circle id="XMLID_35_" style="fill:#FFFFFF;" cx="282.493" cy="150.065" r="19.685"/>
		<path id="XMLID_34_" style="fill:#487ED2;" d="M135,202.631V417.5c104.799,0,190-85.066,190-190v-24.869H135z"/>
		<path id="XMLID_33_" style="fill:#1D54BD;" d="M255.335,347.581c33.16-33.16,33.16-86.921,0-120.081
			c-33.159-33.159-87.176-33.159-120.335,0"/>
		<path id="XMLID_32_" style="fill:#12398F;" d="M135,227.5v170c46.884,0,89.384-19.028,120.163-49.792L135,227.5z"/>
	</g>
</g>
<g>
</g>
<g>
</g>
<g>
</g>
<g>
</g>
<g>
</g>
<g>
</g>
<g>
</g>
<g>
</g>
<g>
</g>
<g>
</g>
<g>
</g>
<g>
</g>
<g>
</g>
<g>
</g>
<g>
</g>
</svg>
