<?xml version="1.0" standalone="no"?>
<!DOCTYPE svg PUBLIC "-//W3C//DTD SVG 20010904//EN"
 "http://www.w3.org/TR/2001/REC-SVG-20010904/DTD/svg10.dtd">
<svg version="1.0" xmlns="http://www.w3.org/2000/svg"
 width="256.000000pt" height="256.000000pt" viewBox="0 0 256.000000 256.000000"
 preserveAspectRatio="xMidYMid meet">

<g transform="translate(0.000000,256.000000) scale(0.100000,-0.100000)"
fill="#984c87" stroke="none">
<path d="M1171 2479 c-639 -83 -1101 -586 -1101 -1200 0 -332 116 -622 340
-850 141 -143 281 -230 475 -295 707 -236 1451 198 1590 927 19 104 20 310 0
421 -88 509 -537 934 -1050 997 -101 12 -160 12 -254 0z m287 -510 c124 -32
225 -91 327 -194 147 -146 216 -307 217 -505 1 -105 -10 -162 -49 -260 -87
-218 -285 -393 -503 -444 -84 -20 -258 -20 -335 -1 -205 52 -388 203 -489 403
-73 145 -89 355 -39 517 48 154 172 316 306 399 175 108 364 137 565 85z"/>
</g>
</svg>
